<svg width="1024" height="1024" xmlns="http://www.w3.org/2000/svg" class="icon">
 <defs>
  <style type="text/css"/>
 </defs>
 <g>
  <title>background</title>
  <rect fill="none" id="canvas_background" height="402" width="582" y="-1" x="-1"/>
 </g>
 <g>
  <title>Layer 1</title>
  <path stroke="#FABA6F" id="svg_1" fill="#ffffff" d="m128,256l64,0l0,-64l-64,0l0,64zm192,0l576,0l0,-64l-576,0l0,64zm-192,288l64,0l0,-64l-64,0l0,64zm192,0l576,0l0,-64l-576,0l0,64zm-192,288l64,0l0,-64l-64,0l0,64zm192,0l576,0l0,-64l-576,0l0,64z"/>
 </g>
</svg>